<?xml version="1.0" encoding="UTF-8"?>
<!DOCTYPE svg PUBLIC "-//W3C//DTD SVG 1.1//EN" "http://www.w3.org/Graphics/SVG/1.1/DTD/svg11.dtd">
<svg xmlns="http://www.w3.org/2000/svg" version="1.1" width="371px" height="371px" style="shape-rendering:geometricPrecision; text-rendering:geometricPrecision; image-rendering:optimizeQuality; fill-rule:evenodd; clip-rule:evenodd" xmlns:xlink="http://www.w3.org/1999/xlink">
<g><path style="opacity:0.992" fill="#54c4f8" d="M 255.5,-0.5 C 293.833,-0.5 332.167,-0.5 370.5,-0.5C 370.5,-0.166667 370.5,0.166667 370.5,0.5C 289.535,80.9654 208.701,161.632 128,242.5C 108.779,223.456 89.6126,204.289 70.5,185C 132.368,123.299 194.035,61.4654 255.5,-0.5 Z"/></g>
<g><path style="opacity:0.995" fill="#53c3f6" d="M 370.5,170.5 C 370.5,171.167 370.5,171.833 370.5,172.5C 337.935,204.731 305.268,237.064 272.5,269.5C 271.127,269.657 269.793,269.49 268.5,269C 250.248,250.246 231.582,232.08 212.5,214.5C 226.631,199.868 240.965,185.368 255.5,171C 293.832,170.5 332.165,170.333 370.5,170.5 Z"/></g>
<g><path style="opacity:1" fill="#29b5f5" d="M 212.5,214.5 C 231.582,232.08 250.248,250.246 268.5,269C 269.793,269.49 271.127,269.657 272.5,269.5C 272.5,270.167 272.167,270.5 271.5,270.5C 263.5,277.833 255.833,285.5 248.5,293.5C 236.833,304.5 225.5,315.833 214.5,327.5C 214.167,327.5 213.833,327.5 213.5,327.5C 194.084,309.118 175.084,290.284 156.5,271C 174.661,251.673 193.327,232.839 212.5,214.5 Z"/></g>
<g><path style="opacity:0.982" fill="#fe0000" d="M 73.5,370.5 C 66.1667,370.5 58.8333,370.5 51.5,370.5C 23.8245,363.491 6.49117,346.158 -0.5,318.5C -0.5,311.167 -0.5,303.833 -0.5,296.5C 9.77932,259.674 34.1127,242.508 72.5,245C 105.876,252.54 123.542,273.374 125.5,307.5C 123.464,341.197 106.131,362.197 73.5,370.5 Z"/></g>
<g><path style="opacity:0.993" fill="#01569a" d="M 271.5,270.5 C 304.167,303.833 337.167,336.833 370.5,369.5C 370.5,369.833 370.5,370.167 370.5,370.5C 332.167,370.5 293.833,370.5 255.5,370.5C 241.445,356.113 227.445,341.78 213.5,327.5C 213.833,327.5 214.167,327.5 214.5,327.5C 230.848,321.772 247.181,315.939 263.5,310C 262.359,309.259 262.359,308.425 263.5,307.5C 262.397,307.002 261.397,306.669 260.5,306.5C 260.709,305.914 261.043,305.414 261.5,305C 257.541,305.209 255.874,303.375 256.5,299.5C 252.342,299.327 249.675,297.327 248.5,293.5C 255.833,285.5 263.5,277.833 271.5,270.5 Z"/></g>
<g><path style="opacity:1" fill="#064d95" d="M 248.5,293.5 C 249.675,297.327 252.342,299.327 256.5,299.5C 255.874,303.375 257.541,305.209 261.5,305C 261.043,305.414 260.709,305.914 260.5,306.5C 261.397,306.669 262.397,307.002 263.5,307.5C 262.359,308.425 262.359,309.259 263.5,310C 247.181,315.939 230.848,321.772 214.5,327.5C 225.5,315.833 236.833,304.5 248.5,293.5 Z"/></g>
</svg>
