<?xml version="1.0" encoding="UTF-8"?>
<!DOCTYPE svg PUBLIC "-//W3C//DTD SVG 1.1//EN" "http://www.w3.org/Graphics/SVG/1.1/DTD/svg11.dtd">
<svg xmlns="http://www.w3.org/2000/svg" version="1.1" width="1630px" height="371px" style="shape-rendering:geometricPrecision; text-rendering:geometricPrecision; image-rendering:optimizeQuality; fill-rule:evenodd; clip-rule:evenodd" xmlns:xlink="http://www.w3.org/1999/xlink">
<g><path style="opacity:0.991" fill="#54c5f8" d="M 255.5,-0.5 C 294.167,-0.5 332.833,-0.5 371.5,-0.5C 290.85,79.6489 209.683,160.649 128,242.5C 108.833,223.333 89.6667,204.167 70.5,185C 132.368,123.299 194.035,61.4654 255.5,-0.5 Z"/></g>
<g><path style="opacity:0.936" fill="#fefffe" d="M 575.5,140.5 C 583.167,140.5 590.833,140.5 598.5,140.5C 598.5,200.833 598.5,261.167 598.5,321.5C 590.833,321.5 583.167,321.5 575.5,321.5C 575.5,261.167 575.5,200.833 575.5,140.5 Z"/></g>
<g><path style="opacity:0.911" fill="#fefffe" d="M 1418.5,147.5 C 1432.95,146.113 1438.79,152.447 1436,166.5C 1433.41,171.13 1429.41,173.463 1424,173.5C 1411.04,171.002 1407.38,163.668 1413,151.5C 1414.81,150.023 1416.65,148.69 1418.5,147.5 Z"/></g>
<g><path style="opacity:0.914" fill="#fefffe" d="M 1629.5,154.5 C 1629.5,158.5 1629.5,162.5 1629.5,166.5C 1622.86,174.356 1615.19,175.356 1606.5,169.5C 1602.69,163.653 1602.52,157.653 1606,151.5C 1610.52,147.758 1615.68,146.591 1621.5,148C 1624.96,149.305 1627.63,151.471 1629.5,154.5 Z"/></g>
<g><path style="opacity:0.955" fill="#fefffe" d="M 444.5,149.5 C 480.167,149.5 515.833,149.5 551.5,149.5C 551.5,156.167 551.5,162.833 551.5,169.5C 523.5,169.5 495.5,169.5 467.5,169.5C 467.5,188.5 467.5,207.5 467.5,226.5C 491.5,226.5 515.5,226.5 539.5,226.5C 539.5,232.833 539.5,239.167 539.5,245.5C 515.5,245.5 491.5,245.5 467.5,245.5C 467.5,270.833 467.5,296.167 467.5,321.5C 459.833,321.5 452.167,321.5 444.5,321.5C 444.5,264.167 444.5,206.833 444.5,149.5 Z"/></g>
<g><path style="opacity:0.935" fill="#fefffe" d="M 1132.5,149.5 C 1140.5,149.5 1148.5,149.5 1156.5,149.5C 1156.33,177.169 1156.5,204.835 1157,232.5C 1181.38,204.906 1205.88,177.406 1230.5,150C 1240.17,149.333 1249.83,149.333 1259.5,150C 1236.98,175.018 1214.65,200.185 1192.5,225.5C 1216.5,257.167 1240.5,288.833 1264.5,320.5C 1255.18,321.665 1245.85,321.832 1236.5,321C 1216.33,294.833 1196.17,268.667 1176,242.5C 1170.03,249.469 1163.7,256.136 1157,262.5C 1156.5,282.164 1156.33,301.831 1156.5,321.5C 1148.5,321.5 1140.5,321.5 1132.5,321.5C 1132.5,264.167 1132.5,206.833 1132.5,149.5 Z"/></g>
<g><path style="opacity:0.935" fill="#fefffe" d="M 771.5,162.5 C 779.167,162.5 786.833,162.5 794.5,162.5C 794.5,172.833 794.5,183.167 794.5,193.5C 802.5,193.5 810.5,193.5 818.5,193.5C 818.5,199.5 818.5,205.5 818.5,211.5C 810.5,211.5 802.5,211.5 794.5,211.5C 794.033,240.217 794.533,268.884 796,297.5C 797.167,300 799,301.833 801.5,303C 807.204,303.687 812.87,303.521 818.5,302.5C 818.5,308.833 818.5,315.167 818.5,321.5C 809.204,323.807 799.871,323.974 790.5,322C 778.23,316.662 772.063,307.162 772,293.5C 771.5,266.169 771.333,238.835 771.5,211.5C 763.833,211.5 756.167,211.5 748.5,211.5C 748.5,205.5 748.5,199.5 748.5,193.5C 756.167,193.5 763.833,193.5 771.5,193.5C 771.5,183.167 771.5,172.833 771.5,162.5 Z"/></g>
<g><path style="opacity:0.959" fill="#fefffe" d="M 850.5,162.5 C 857.833,162.5 865.167,162.5 872.5,162.5C 872.5,172.833 872.5,183.167 872.5,193.5C 880.5,193.5 888.5,193.5 896.5,193.5C 896.5,199.5 896.5,205.5 896.5,211.5C 888.5,211.5 880.5,211.5 872.5,211.5C 872.06,239.866 872.56,268.2 874,296.5C 874.833,300 877,302.167 880.5,303C 886.204,303.687 891.87,303.521 897.5,302.5C 897.5,308.833 897.5,315.167 897.5,321.5C 887.094,324.198 876.76,324.031 866.5,321C 857.271,316.398 852.105,308.898 851,298.5C 850.5,269.502 850.333,240.502 850.5,211.5C 842.833,211.5 835.167,211.5 827.5,211.5C 827.5,205.5 827.5,199.5 827.5,193.5C 835.167,193.5 842.833,193.5 850.5,193.5C 850.5,183.167 850.5,172.833 850.5,162.5 Z"/></g>
<g><path style="opacity:0.994" fill="#53c3f7" d="M 272.5,270.5 C 271.833,270.5 271.167,270.5 270.5,270.5C 252.202,251.701 233.702,233.035 215,214.5C 214.536,213.906 214.369,213.239 214.5,212.5C 227.965,198.535 241.631,184.701 255.5,171C 294.167,170.333 332.833,170.333 371.5,171C 338.299,204.035 305.299,237.201 272.5,270.5 Z"/></g>
<g><path style="opacity:0.951" fill="#fefffe" d="M 961.5,191.5 C 991.813,187.55 1011.65,199.883 1021,228.5C 1023.16,240.059 1024.33,251.726 1024.5,263.5C 995.833,263.5 967.167,263.5 938.5,263.5C 938.711,288.324 951.044,301.991 975.5,304.5C 989.378,304.394 1000.38,298.728 1008.5,287.5C 1013.21,291.178 1017.87,294.844 1022.5,298.5C 1011.07,315.615 994.901,323.948 974,323.5C 947.189,323.011 928.856,310.345 919,285.5C 911.883,260.137 914.883,236.137 928,213.5C 936.682,202.307 947.849,194.973 961.5,191.5 Z M 969.5,209.5 C 990.987,211.663 1001.65,223.663 1001.5,245.5C 980.497,245.667 959.497,245.5 938.5,245C 940.065,232.955 945.399,222.955 954.5,215C 959.299,212.238 964.299,210.404 969.5,209.5 Z"/></g>
<g><path style="opacity:0.963" fill="#fefffe" d="M 1091.5,191.5 C 1097.56,191.21 1103.56,191.543 1109.5,192.5C 1110.5,199.468 1110.83,206.468 1110.5,213.5C 1101.65,212.874 1092.99,213.707 1084.5,216C 1078.28,219.223 1073.78,224.057 1071,230.5C 1070.5,260.832 1070.33,291.165 1070.5,321.5C 1063.17,321.5 1055.83,321.5 1048.5,321.5C 1048.5,278.833 1048.5,236.167 1048.5,193.5C 1055.83,193.5 1063.17,193.5 1070.5,193.5C 1070.33,197.846 1070.5,202.179 1071,206.5C 1076.21,199.158 1083.04,194.158 1091.5,191.5 Z"/></g>
<g><path style="opacity:0.943" fill="#fefffe" d="M 1318.5,191.5 C 1335.32,188.961 1350.65,192.461 1364.5,202C 1371.73,208.958 1375.9,217.458 1377,227.5C 1377.33,252.833 1377.67,278.167 1378,303.5C 1379.17,309.522 1380.34,315.522 1381.5,321.5C 1373.83,321.666 1366.16,321.5 1358.5,321C 1356.71,317.051 1355.54,312.885 1355,308.5C 1341.33,321.629 1325.16,326.129 1306.5,322C 1283.72,315.285 1273.89,300.118 1277,276.5C 1281.63,259.903 1292.46,249.736 1309.5,246C 1324.4,243.745 1339.4,242.912 1354.5,243.5C 1356.04,215.22 1343.04,204.72 1315.5,212C 1307.25,215.074 1302.58,220.907 1301.5,229.5C 1293.83,229.5 1286.17,229.5 1278.5,229.5C 1280.92,212.56 1290.26,201.06 1306.5,195C 1310.62,193.808 1314.62,192.641 1318.5,191.5 Z M 1329.5,259.5 C 1337.83,259.5 1346.17,259.5 1354.5,259.5C 1360.37,286.102 1349.87,300.768 1323,303.5C 1308.63,303.585 1300.47,296.585 1298.5,282.5C 1300.13,271.369 1306.46,264.536 1317.5,262C 1321.64,261.161 1325.64,260.327 1329.5,259.5 Z"/></g>
<g><path style="opacity:0.945" fill="#fefffe" d="M 1529.5,370.5 C 1521.5,370.5 1513.5,370.5 1505.5,370.5C 1490.9,367.698 1478.9,360.531 1469.5,349C 1473.34,344.326 1477.34,339.826 1481.5,335.5C 1498.1,353.723 1517.1,356.89 1538.5,345C 1543.91,340.014 1547.08,333.847 1548,326.5C 1548.67,321.167 1548.67,315.833 1548,310.5C 1533.13,322.942 1516.29,326.442 1497.5,321C 1476.32,310.102 1465.15,292.602 1464,268.5C 1461.07,246.812 1465.4,226.812 1477,208.5C 1489.56,193.867 1505.4,188.367 1524.5,192C 1534.22,193.773 1542.38,198.273 1549,205.5C 1550.35,201.637 1550.85,197.637 1550.5,193.5C 1557.5,193.5 1564.5,193.5 1571.5,193.5C 1571.97,239.867 1571.47,286.2 1570,332.5C 1564.36,353.645 1550.86,366.312 1529.5,370.5 Z M 1513.5,210.5 C 1528.73,208.864 1540.23,214.531 1548,227.5C 1548.67,247.167 1548.67,266.833 1548,286.5C 1538.61,302.299 1525.11,307.466 1507.5,302C 1495.31,295.157 1488.48,284.657 1487,270.5C 1484.31,253.544 1486.98,237.544 1495,222.5C 1500.07,216.564 1506.23,212.564 1513.5,210.5 Z"/></g>
<g><path style="opacity:0.938" fill="#fefffe" d="M 631.5,193.5 C 639.167,193.5 646.833,193.5 654.5,193.5C 654.333,224.168 654.5,254.835 655,285.5C 657.353,297.779 664.853,304.112 677.5,304.5C 691.797,304.778 702.297,298.778 709,286.5C 709.5,255.502 709.667,224.502 709.5,193.5C 717.167,193.5 724.833,193.5 732.5,193.5C 732.5,236.167 732.5,278.833 732.5,321.5C 725.167,321.5 717.833,321.5 710.5,321.5C 710.666,317.486 710.499,313.486 710,309.5C 699.94,319.358 687.773,324.025 673.5,323.5C 648.825,323.325 634.992,310.992 632,286.5C 631.5,255.502 631.333,224.502 631.5,193.5 Z"/></g>
<g><path style="opacity:0.975" fill="#fefffe" d="M 1412.5,193.5 C 1419.83,193.5 1427.17,193.5 1434.5,193.5C 1434.5,236.167 1434.5,278.833 1434.5,321.5C 1427.17,321.5 1419.83,321.5 1412.5,321.5C 1412.5,278.833 1412.5,236.167 1412.5,193.5 Z"/></g>
<g><path style="opacity:0.975" fill="#fefffe" d="M 1605.5,193.5 C 1612.83,193.5 1620.17,193.5 1627.5,193.5C 1627.5,236.167 1627.5,278.833 1627.5,321.5C 1620.17,321.5 1612.83,321.5 1605.5,321.5C 1605.5,278.833 1605.5,236.167 1605.5,193.5 Z"/></g>
<g><path style="opacity:1" fill="#29b6f5" d="M 214.5,212.5 C 214.369,213.239 214.536,213.906 215,214.5C 233.702,233.035 252.202,251.701 270.5,270.5C 262.833,278.5 255.167,286.5 247.5,294.5C 236.167,305.167 225.167,316.167 214.5,327.5C 214.167,327.5 213.833,327.5 213.5,327.5C 194.188,308.854 175.188,289.854 156.5,270.5C 175.521,250.812 194.854,231.479 214.5,212.5 Z"/></g>
<g><path style="opacity:0.982" fill="#fe0000" d="M 73.5,370.5 C 66.1667,370.5 58.8333,370.5 51.5,370.5C 23.8245,363.491 6.49117,346.158 -0.5,318.5C -0.5,311.167 -0.5,303.833 -0.5,296.5C 9.96375,259.236 34.6304,242.069 73.5,245C 106.339,253 123.672,273.833 125.5,307.5C 123.475,341.187 106.142,362.187 73.5,370.5 Z"/></g>
<g><path style="opacity:0.993" fill="#02569a" d="M 270.5,270.5 C 271.167,270.5 271.833,270.5 272.5,270.5C 305.003,304.532 338.003,337.866 371.5,370.5C 332.833,370.5 294.167,370.5 255.5,370.5C 241.5,356.167 227.5,341.833 213.5,327.5C 213.833,327.5 214.167,327.5 214.5,327.5C 230.964,322.131 247.297,316.297 263.5,310C 262.134,308.4 261.134,306.567 260.5,304.5C 259.914,304.709 259.414,305.043 259,305.5C 258.333,304.167 257.333,303.167 256,302.5C 255.383,301.551 255.549,300.718 256.5,300C 255.24,298.887 254.073,298.72 253,299.5C 252.517,298.552 252.351,297.552 252.5,296.5C 251.448,296.649 250.448,296.483 249.5,296C 250.451,295.282 250.617,294.449 250,293.5C 249.329,294.252 248.496,294.586 247.5,294.5C 255.167,286.5 262.833,278.5 270.5,270.5 Z"/></g>
<g><path style="opacity:1" fill="#064d95" d="M 214.5,327.5 C 225.167,316.167 236.167,305.167 247.5,294.5C 248.496,294.586 249.329,294.252 250,293.5C 250.617,294.449 250.451,295.282 249.5,296C 250.448,296.483 251.448,296.649 252.5,296.5C 252.351,297.552 252.517,298.552 253,299.5C 254.073,298.72 255.24,298.887 256.5,300C 255.549,300.718 255.383,301.551 256,302.5C 257.333,303.167 258.333,304.167 259,305.5C 259.414,305.043 259.914,304.709 260.5,304.5C 261.134,306.567 262.134,308.4 263.5,310C 247.297,316.297 230.964,322.131 214.5,327.5 Z"/></g>
</svg>
